<?xml version="1.0" standalone="no"?>
<!DOCTYPE svg PUBLIC "-//W3C//DTD SVG 20010904//EN"
 "http://www.w3.org/TR/2001/REC-SVG-20010904/DTD/svg10.dtd">
<svg version="1.0" xmlns="http://www.w3.org/2000/svg"
 width="1024.000000pt" height="645.000000pt" viewBox="0 0 1024.000000 645.000000"
 preserveAspectRatio="xMidYMid meet">

<g transform="translate(0.000000,645.000000) scale(0.100000,-0.100000)"
fill="#FFFFFF" stroke="none">
<path d="M5573 5605 c-58 -40 -182 -236 -228 -360 -15 -38 -32 -81 -40 -95
-12 -23 -69 -70 -85 -70 -4 0 -7 20 -8 45 0 24 -10 76 -22 115 -12 39 -19 81
-16 94 7 29 -2 38 -25 25 -11 -5 -19 -21 -19 -35 0 -33 -50 -105 -100 -145
-22 -18 -42 -40 -46 -51 -5 -15 -51 -48 -69 -48 -3 0 -5 20 -5 43 0 24 -9 70
-20 102 -11 32 -20 75 -20 97 0 31 -4 38 -19 38 -20 0 -31 -18 -31 -51 0 -27
-44 -96 -94 -146 -22 -22 -56 -59 -74 -81 -57 -70 -145 -94 -176 -50 -29 41
-21 65 28 81 116 40 198 143 151 190 -60 61 -212 -48 -246 -175 -39 -146 106
-196 238 -83 l41 35 6 -25 c17 -68 135 -85 187 -27 27 30 78 62 99 62 5 0 10
-7 10 -16 0 -8 13 -29 29 -45 25 -25 37 -29 81 -29 45 0 56 4 83 32 18 18 50
41 73 53 l41 21 14 -40 c24 -68 86 -74 154 -15 32 28 35 29 35 11 0 -11 14
-32 31 -46 23 -20 41 -26 77 -26 95 1 180 64 247 184 20 36 40 68 45 71 13 8
49 -44 44 -63 -3 -9 -19 -44 -36 -77 -39 -76 -34 -108 16 -125 30 -9 42 -8 85
11 49 21 121 87 121 111 0 7 -15 -5 -34 -25 -53 -58 -156 -94 -156 -56 0 5 14
36 30 69 41 81 39 107 -9 154 -33 33 -39 44 -34 67 3 16 1 29 -4 29 -19 0 -43
-37 -43 -65 0 -41 -71 -156 -126 -204 -80 -70 -163 -79 -192 -19 -19 40 -6 56
53 68 71 15 142 61 161 105 8 19 14 39 14 44 0 20 -33 41 -66 41 -81 0 -164
-64 -214 -165 -66 -132 -162 -144 -144 -17 5 41 15 56 74 117 75 77 164 207
181 264 14 47 8 105 -11 109 -8 1 -25 -5 -37 -13z m23 -87 c-11 -56 -186 -311
-203 -295 -8 9 84 180 136 255 56 78 77 91 67 40z m-976 -253 c0 -43 -123
-155 -146 -132 -12 11 19 70 59 115 47 50 87 58 87 17z m1118 -4 c5 -32 -32
-68 -102 -102 -33 -16 -62 -27 -64 -25 -7 8 30 67 64 102 57 56 96 66 102 25z
m-883 -129 c6 -47 5 -52 -12 -52 -11 0 -37 15 -58 33 l-38 33 39 58 39 57 11
-38 c6 -22 15 -62 19 -91z m295 48 c15 -91 10 -106 -27 -86 -16 8 -39 26 -52
40 l-23 25 36 42 c20 24 36 47 36 51 0 5 4 7 9 4 5 -4 15 -38 21 -76z m-86
-69 c10 -11 32 -25 49 -32 42 -16 42 -16 27 -34 -19 -23 -76 -19 -94 7 -17 24
-22 78 -8 78 5 0 17 -9 26 -19z m-308 -2 c3 -6 27 -20 51 -31 43 -19 44 -20
27 -39 -9 -10 -26 -19 -37 -19 -31 0 -67 39 -67 72 0 28 13 37 26 17z"/>
<path d="M4445 5601 c-127 -5 -145 -9 -197 -34 -69 -34 -98 -71 -98 -124 0
-43 14 -63 43 -63 14 0 17 5 12 20 -9 27 -9 71 -2 95 10 30 43 46 105 52 52 6
55 5 48 -13 -4 -10 -23 -64 -41 -119 l-34 -99 -45 -13 c-27 -8 -50 -22 -57
-35 -11 -20 -10 -20 35 -14 25 4 46 4 46 -1 0 -4 -11 -51 -25 -103 -38 -145
-32 -220 16 -220 17 0 29 37 29 89 0 14 10 76 22 138 24 121 25 123 95 123 36
0 83 16 83 27 0 5 -30 10 -67 11 -38 2 -69 5 -71 7 -4 3 23 112 44 178 l16 47
75 0 c59 0 83 5 109 21 37 22 44 40 17 37 -10 -1 -81 -4 -158 -7z"/>
<path d="M3945 5179 c-476 -72 -930 -167 -1258 -266 -77 -23 -110 -43 -96 -58
3 -2 52 10 109 26 364 103 790 195 1125 244 254 36 245 34 245 50 0 17 -30 18
-125 4z"/>
<path d="M6156 5175 c-7 -20 -21 -17 234 -54 364 -54 733 -134 1077 -232 128
-37 193 -45 167 -20 -13 13 -342 104 -559 155 -263 62 -555 115 -876 161 -27
4 -38 1 -43 -10z"/>
<path d="M5014 4518 c3 -189 9 -409 12 -490 l6 -148 69 0 69 0 0 196 0 195 42
-3 43 -3 43 -190 c24 -104 44 -191 45 -192 1 -1 30 -5 65 -9 55 -6 62 -5 62
10 0 10 -18 103 -41 207 l-41 190 26 20 c51 40 59 72 66 244 6 190 0 235 -41
269 -45 38 -90 46 -268 46 l-163 0 6 -342z m296 202 c18 -18 20 -33 20 -153 0
-169 -4 -177 -96 -177 l-64 0 0 175 0 175 60 0 c47 0 64 -4 80 -20z"/>
<path d="M4541 4834 c-101 -7 -185 -15 -187 -16 -1 -2 4 -69 11 -148 8 -80 28
-296 45 -480 17 -184 33 -337 35 -340 4 -6 333 15 339 21 2 2 1 29 -1 59 l-5
55 -103 -3 -102 -4 -7 88 c-4 49 -9 122 -13 162 l-6 72 44 0 c24 0 68 3 97 6
l52 7 0 36 c0 82 -1 83 -105 75 l-92 -7 -6 54 c-4 30 -9 95 -13 146 l-6 91 43
6 c24 4 73 7 109 9 l65 2 3 54 c2 30 0 57 -5 61 -4 3 -91 1 -192 -6z"/>
<path d="M6258 4776 c-73 -26 -89 -67 -109 -266 -8 -81 -8 -123 -1 -142 7 -17
53 -55 133 -109 l122 -83 -7 -73 c-10 -126 -17 -153 -42 -170 -20 -13 -29 -13
-66 -2 -43 14 -43 14 -46 67 -3 47 -5 52 -26 52 -13 0 -44 3 -70 6 l-46 7 0
-74 c0 -119 35 -158 161 -178 132 -22 195 -8 234 53 9 14 28 93 41 178 32 195
35 188 -120 294 -63 43 -117 86 -119 94 -5 29 21 201 34 216 10 12 25 15 61
12 70 -7 81 -20 73 -88 -8 -66 -8 -65 84 -76 l59 -6 7 48 c15 110 10 139 -27
179 -38 40 -100 59 -219 69 -52 4 -85 2 -111 -8z"/>
<path d="M3708 4736 c-64 -11 -119 -23 -122 -26 -4 -5 70 -434 155 -898 11
-61 12 -63 38 -58 14 3 87 15 161 26 74 12 148 29 165 38 16 10 38 35 49 56
18 37 18 41 -1 197 -22 178 -32 199 -105 221 l-38 11 30 19 c50 30 55 54 42
190 -16 154 -35 201 -94 228 -55 25 -128 24 -280 -4z m195 -115 c10 -10 36
-154 37 -202 0 -48 -27 -71 -90 -77 -27 -2 -50 -3 -51 -1 0 2 -10 65 -23 139
-12 74 -22 136 -21 138 1 1 22 7 46 11 45 9 88 6 102 -8z m66 -408 c18 -15 24
-40 38 -146 20 -150 19 -151 -72 -166 -33 -5 -61 -8 -62 -7 -8 7 -51 312 -45
318 7 7 47 14 93 17 15 0 36 -7 48 -16z"/>
<path d="M6930 4684 c0 -8 -169 -900 -176 -930 -5 -18 2 -22 61 -33 36 -7 68
-11 72 -8 3 3 24 98 47 211 23 113 45 208 47 210 6 7 152 -24 162 -33 4 -4
-13 -101 -39 -214 -26 -114 -45 -210 -42 -213 12 -12 121 -35 128 -27 8 8 230
909 230 930 0 12 -39 25 -111 38 l-37 7 -27 -119 c-15 -65 -35 -153 -45 -196
-10 -43 -20 -80 -22 -82 -9 -9 -160 29 -165 42 -3 7 12 92 32 190 20 98 37
185 38 193 1 10 -14 18 -48 26 -57 14 -105 17 -105 8z"/>
<path d="M3055 4605 c-205 -51 -225 -58 -225 -73 0 -8 41 -169 91 -356 50
-188 105 -393 121 -456 17 -63 31 -116 32 -117 2 -3 129 27 133 31 2 2 -17 85
-42 184 -25 100 -45 185 -45 190 0 5 18 14 40 20 l41 10 89 -179 c73 -145 94
-179 111 -179 21 0 109 20 109 25 0 1 -40 87 -90 189 -88 184 -89 187 -70 206
41 41 43 86 9 252 -17 84 -40 173 -52 198 -38 79 -101 92 -252 55z m114 -134
c14 -26 61 -227 61 -260 0 -15 -8 -35 -17 -43 -20 -18 -115 -40 -124 -30 -7 7
-79 302 -79 321 0 14 55 29 107 30 32 1 45 -4 52 -18z"/>
<path d="M7754 4461 c-34 -15 -72 -68 -87 -123 -194 -686 -197 -700 -156 -752
27 -34 62 -52 173 -87 140 -44 202 -36 244 33 11 18 72 187 137 375 133 386
133 388 67 454 -63 62 -312 128 -378 100z m208 -148 c69 -28 70 -21 -46 -378
-86 -262 -110 -325 -126 -330 -32 -10 -128 22 -145 49 -14 21 -9 44 81 342 58
193 102 324 112 332 19 15 63 9 124 -15z"/>
<path d="M2290 4387 c-73 -25 -104 -41 -137 -73 -68 -64 -67 -70 99 -527 78
-216 143 -394 144 -396 3 -4 134 39 134 44 0 2 -25 75 -55 163 -30 88 -55 164
-55 169 0 13 141 56 150 46 5 -4 31 -77 58 -161 27 -84 52 -155 55 -159 12
-11 127 29 127 44 0 24 -230 776 -249 813 -38 76 -122 87 -271 37z m120 -107
c23 -12 128 -327 114 -340 -11 -9 -144 -53 -148 -49 -10 12 -106 306 -106 324
0 27 15 41 66 59 49 18 51 18 74 6z"/>
<path d="M8467 4158 c-20 -51 -93 -241 -162 -423 -69 -181 -130 -340 -135
-353 -17 -40 -11 -49 46 -71 31 -11 59 -21 64 -21 4 0 36 71 71 158 34 86 63
158 65 160 1 2 38 -11 83 -28 98 -38 158 -41 201 -10 35 25 47 48 132 238 108
244 93 276 -182 386 -77 31 -142 56 -144 56 -2 0 -20 -42 -39 -92z m207 -103
c17 -8 40 -23 50 -34 19 -20 18 -23 -44 -171 -39 -93 -70 -155 -82 -161 -15
-8 -33 -5 -74 11 -30 12 -54 27 -54 34 0 6 30 86 67 178 74 182 65 173 137
143z"/>
<path d="M1620 4131 c-59 -19 -260 -107 -272 -119 -6 -6 147 -347 372 -829
l29 -62 138 60 c76 33 153 70 171 81 37 23 62 64 62 104 0 35 -106 304 -130
328 -13 13 -38 21 -75 24 l-56 5 30 29 c42 41 40 81 -9 202 -53 132 -73 161
-120 180 -50 20 -71 20 -140 -3z m59 -130 c24 -13 93 -183 89 -218 -2 -23 -14
-33 -57 -56 -30 -15 -58 -24 -62 -20 -3 5 -31 65 -61 134 l-55 126 46 21 c53
23 75 26 100 13z m184 -385 c8 -8 36 -67 62 -131 45 -107 47 -117 32 -132 -21
-21 -120 -64 -128 -55 -8 8 -117 261 -121 280 -3 16 74 51 114 51 15 1 33 -5
41 -13z"/>
<path d="M4675 3750 c-837 -54 -1622 -224 -2380 -515 -82 -32 -152 -59 -154
-61 -3 -3 15 -53 39 -112 164 -403 323 -788 326 -791 2 -2 36 8 76 24 665 252
1210 384 1858 449 788 81 1629 16 2400 -185 145 -37 456 -130 504 -149 75 -31
378 -141 381 -138 7 7 358 864 362 884 4 18 -10 26 -119 69 -704 274 -1422
439 -2218 511 -208 18 -869 27 -1075 14z m315 -270 c0 -28 -3 -30 -34 -30
l-35 0 5 -127 c2 -71 6 -170 8 -220 l4 -93 -33 0 c-28 0 -33 4 -39 31 -3 17
-6 66 -6 108 0 42 -3 127 -7 189 l-6 112 -34 0 c-30 0 -33 3 -33 30 l0 30 105
0 105 0 0 -30z m493 19 c31 -17 37 -28 37 -76 0 -42 0 -43 -35 -43 -33 0 -35
2 -35 35 0 32 -3 35 -29 35 -29 0 -29 -1 -33 -62 -5 -85 2 -98 56 -98 73 0
106 -10 106 -32 0 -11 -8 -22 -19 -25 -17 -4 -20 -16 -23 -93 -4 -114 -17
-130 -98 -130 -42 0 -64 5 -81 19 -22 18 -24 27 -24 111 0 86 2 93 25 112 22
18 23 21 7 29 -27 16 -25 167 4 203 17 22 28 26 70 26 28 0 60 -5 72 -11z
m-816 -169 c18 -264 17 -287 -12 -315 -20 -21 -34 -25 -85 -25 -109 0 -112 5
-135 265 -9 99 -18 190 -20 201 -4 18 1 22 32 27 20 4 38 5 39 4 1 -1 9 -90
18 -197 21 -251 18 -240 62 -240 21 0 37 6 40 15 3 8 -1 106 -9 217 -9 111
-13 206 -10 210 2 5 19 8 36 6 l32 -3 12 -165z m1372 129 c38 -14 51 -35 51
-88 0 -47 -7 -53 -49 -45 -26 6 -31 11 -29 33 3 36 -8 51 -37 51 -30 0 -31 -2
-39 -72 l-7 -56 54 -36 c83 -55 82 -54 70 -153 -13 -107 -29 -126 -102 -124
-51 1 -89 14 -103 35 -4 6 -8 31 -8 55 0 35 3 42 16 37 9 -3 24 -6 34 -6 13 0
20 -9 22 -27 3 -24 8 -28 33 -28 29 0 30 2 38 60 7 55 6 61 -15 75 -110 74
-115 83 -103 198 9 82 27 102 94 102 26 0 62 -5 80 -11z m-1802 -9 c35 -13 53
-46 53 -95 0 -33 -2 -35 -34 -35 -31 0 -34 3 -40 35 -6 30 -11 35 -36 35 -16
0 -32 -5 -36 -11 -7 -13 35 -341 47 -360 14 -23 64 2 64 31 0 20 6 26 29 28
49 6 63 -47 23 -93 -18 -21 -34 -27 -82 -32 -98 -9 -100 -6 -135 229 -23 155
-27 203 -19 222 12 26 44 43 94 49 17 2 33 5 36 6 3 0 20 -4 36 -9z m2073 -39
c0 -9 -7 -56 -16 -105 -8 -48 -14 -89 -12 -91 2 -1 22 -5 44 -9 l42 -6 11 63
c6 34 13 82 17 105 l7 44 36 -7 c20 -4 37 -8 37 -8 1 -1 -16 -99 -37 -217 -21
-118 -41 -229 -44 -247 -5 -30 -8 -32 -38 -26 -18 3 -33 7 -35 8 -2 2 6 52 16
111 11 60 19 110 18 111 -1 1 -20 5 -43 9 -47 7 -43 14 -64 -128 -11 -79 -14
-88 -33 -88 -51 1 -51 3 -17 236 43 299 35 271 76 266 24 -3 35 -9 35 -21z
m-2402 -31 c33 -35 54 -211 30 -249 -10 -16 -5 -35 27 -111 32 -76 36 -93 24
-101 -34 -21 -47 -9 -85 82 -22 50 -45 94 -52 97 -28 10 -32 -14 -17 -94 8
-43 15 -86 15 -95 0 -17 -49 -33 -61 -21 -7 7 -86 410 -92 462 -2 22 3 25 53
36 88 19 136 17 158 -6z m2872 -47 c64 -26 64 -36 3 -300 l-47 -202 -25 6
c-14 3 -30 9 -34 13 -5 4 0 44 11 89 l20 82 -26 10 c-42 16 -56 7 -65 -41 -21
-109 -26 -120 -57 -120 -16 0 -31 3 -33 8 -3 4 14 104 38 222 39 195 45 216
70 238 23 20 34 22 69 17 22 -4 57 -14 76 -22z m-3186 -221 c27 -125 51 -234
54 -244 3 -11 -5 -18 -28 -23 -17 -4 -33 -5 -36 -3 -2 3 -27 106 -55 229 -27
123 -52 232 -55 241 -5 16 10 24 51 27 18 1 25 -20 69 -227z m3432 165 c1 -1
-6 -83 -16 -182 -10 -99 -17 -181 -16 -182 2 -2 36 71 76 162 61 139 76 165
94 165 11 0 27 -4 35 -9 16 -10 18 -5 -139 -335 l-61 -128 -37 7 c-20 4 -38 8
-40 10 -2 2 4 93 12 202 9 109 16 219 16 244 0 25 3 49 7 53 7 6 61 1 69 -7z
m-3698 -21 c12 -12 127 -445 120 -451 -2 -2 -17 -6 -34 -9 l-31 -7 -23 87 -22
86 -35 -5 c-20 -4 -38 -8 -40 -11 -2 -2 5 -41 18 -86 23 -86 20 -97 -20 -102
-23 -3 -27 5 -84 208 -40 143 -58 220 -53 238 14 57 161 94 204 52z m-296
-291 c37 -121 67 -228 67 -238 1 -14 -33 -37 -54 -37 -2 0 -18 44 -35 98 -17
53 -33 102 -35 109 -3 9 -12 10 -37 1 -18 -6 -36 -14 -40 -17 -5 -4 5 -50 22
-101 16 -52 30 -100 30 -107 0 -6 -13 -16 -29 -21 l-30 -11 -32 97 c-18 53
-54 159 -80 236 -27 76 -49 140 -49 141 0 8 65 24 71 18 3 -5 19 -46 34 -93
15 -47 29 -88 31 -91 5 -8 84 13 84 23 0 7 -46 156 -57 185 -5 14 32 33 57 30
10 -2 36 -73 82 -222z m4382 204 c86 -25 93 -31 78 -63 -11 -25 -12 -25 -53
-11 -23 8 -45 15 -49 15 -13 0 -53 -131 -44 -140 5 -4 26 -13 46 -19 35 -12
36 -13 27 -41 l-10 -29 -42 15 c-22 8 -44 11 -48 7 -11 -12 -49 -144 -44 -153
3 -4 21 -11 40 -14 39 -8 52 -27 39 -56 -9 -18 -12 -18 -90 8 l-81 27 71 237
c39 131 75 238 80 238 5 0 41 -9 80 -21z"/>
<path d="M5382 3228 c-7 -7 -12 -41 -12 -84 0 -62 3 -74 19 -79 38 -12 48 3
54 82 3 43 4 81 1 85 -8 12 -48 10 -62 -4z"/>
<path d="M3798 3333 c-21 -5 -22 -23 -4 -113 12 -63 14 -65 41 -63 44 3 49 14
35 89 -15 90 -23 100 -72 87z"/>
<path d="M6675 3268 c-2 -13 -12 -54 -20 -92 -8 -38 -14 -71 -12 -73 2 -2 21
-4 42 -6 l38 -2 19 85 c18 80 18 85 2 97 -29 21 -63 16 -69 -9z"/>
<path d="M3216 3203 c-22 -6 -19 -40 9 -136 l17 -59 36 7 c21 4 38 8 40 10 2
2 -7 43 -20 91 -24 93 -31 100 -82 87z"/>
<path d="M8051 2962 c-4 -9 -75 -177 -156 -372 -81 -195 -149 -357 -151 -359
-2 -2 -74 24 -161 57 -87 33 -205 77 -263 97 -108 37 -475 145 -494 145 -13 0
-68 -202 -58 -211 4 -4 84 -28 177 -54 344 -97 751 -253 1049 -402 59 -30 111
-52 113 -49 8 7 -40 267 -83 460 -19 83 -34 157 -34 164 0 13 352 192 498 253
45 19 83 38 83 44 1 9 -283 148 -438 213 -66 28 -74 30 -82 14z"/>
<path d="M1975 2891 c-93 -43 -205 -95 -248 -117 l-77 -39 97 -44 c88 -39 449
-219 481 -239 9 -7 5 -40 -19 -153 -31 -148 -90 -481 -85 -486 1 -2 83 35 182
81 192 89 420 184 599 248 120 43 429 138 513 158 33 7 52 17 52 26 0 22 -40
178 -50 194 -7 12 -33 7 -147 -25 -170 -47 -463 -145 -642 -215 -73 -28 -137
-48 -141 -43 -5 4 -71 159 -148 343 -173 413 -162 390 -181 389 -9 0 -92 -35
-186 -78z"/>
<path d="M3614 2308 c-65 -56 -594 -539 -594 -543 0 -2 9 -23 19 -48 l19 -44
-68 -164 c-37 -90 -72 -164 -76 -164 -5 1 -30 5 -55 9 -137 24 -264 -104 -230
-231 6 -22 30 -58 57 -86 l46 -48 -4 -71 c-2 -58 0 -73 14 -82 22 -14 27 -8
43 54 19 70 38 96 82 110 55 18 100 55 124 103 18 34 21 52 15 108 -6 66 -5
68 78 275 l84 208 188 240 c295 375 326 416 317 416 -5 0 -32 -19 -59 -42z
m-476 -561 c4 -20 -25 -34 -40 -19 -15 15 -1 44 19 40 10 -2 19 -11 21 -21z
m-237 -464 c110 -65 41 -233 -96 -233 -133 0 -170 159 -53 230 41 25 110 26
149 3z"/>
<path d="M6632 2177 c-26 -28 -52 -88 -52 -121 0 -19 10 -31 43 -50 95 -55
616 -296 653 -302 34 -5 45 -2 71 20 17 14 37 26 44 26 20 0 239 -122 234
-130 -3 -4 -73 -42 -157 -83 -267 -132 -584 -249 -880 -323 -167 -41 -198 -60
-198 -118 0 -45 46 -86 97 -86 37 0 251 59 393 109 274 95 549 228 801 385
l76 47 84 -40 c77 -36 112 -45 177 -42 12 1 22 7 22 16 0 11 -12 15 -50 15
-62 0 -106 18 -144 59 -28 29 -28 32 -13 49 21 23 22 56 1 76 -18 19 -44 20
-78 5 -22 -11 -40 -3 -169 69 -80 45 -259 136 -398 203 -140 67 -309 148 -377
180 -67 33 -131 59 -141 59 -9 0 -27 -10 -39 -23z"/>
<path d="M3608 2037 l-217 -102 -90 -115 c-49 -63 -88 -116 -87 -118 2 -1 133
83 291 189 159 105 294 193 300 196 14 5 39 53 27 52 -4 0 -105 -46 -224 -102z"/>
<path d="M4708 2041 c-79 -26 -176 -93 -298 -208 -182 -170 -260 -223 -330
-223 -107 0 -146 203 -55 288 44 40 74 41 120 1 33 -29 35 -30 35 -10 0 36
-38 100 -70 116 -91 47 -198 -12 -258 -143 -74 -159 -55 -365 45 -511 108
-156 367 -252 598 -222 209 28 371 109 553 276 l73 67 67 -64 c161 -155 314
-235 519 -274 265 -49 567 73 663 269 47 98 63 178 57 282 -12 195 -112 335
-241 335 -54 0 -94 -29 -121 -89 -23 -52 -15 -61 25 -27 80 67 170 -6 170
-139 0 -62 -17 -111 -48 -139 -31 -27 -98 -17 -165 24 -30 18 -103 77 -163
132 -276 253 -376 302 -546 268 -80 -15 -129 -41 -178 -92 l-40 -40 -53 48
c-30 27 -76 57 -103 67 -74 28 -187 31 -256 8z"/>
<path d="M2815 1754 c-161 -26 -195 -26 -265 1 -90 34 -192 -14 -237 -112 -29
-64 -26 -120 10 -175 40 -60 147 -95 212 -69 11 5 27 5 36 0 27 -14 64 13 64
46 1 17 9 48 19 69 11 26 17 56 14 88 -4 57 -19 52 201 67 79 6 146 13 148 15
7 7 -35 96 -44 95 -4 -1 -75 -12 -158 -25z m-242 -74 c56 -49 56 -127 -1 -188
-78 -84 -208 -48 -219 60 -6 57 21 106 72 135 57 32 106 30 148 -7z"/>
</g>
</svg>
